<svg xmlns="http://www.w3.org/2000/svg" xmlns:xlink="http://www.w3.org/1999/xlink" width="1340" height="819.85"><rect width="1340" height="819.85" rx="5" ry="5" class="a"/><svg y="0%" x="0%"><circle cx="20" cy="20" r="6" fill="#ff5f58"/><circle cx="40" cy="20" r="6" fill="#ffbd2e"/><circle cx="60" cy="20" r="6" fill="#18c132"/></svg><svg height="759.85" viewBox="0 0 130 75.985" width="1300" x="15" xmlns="http://www.w3.org/2000/svg" xmlns:xlink="http://www.w3.org/1999/xlink" y="50"><style>@keyframes o{0%{transform:translateX(0)}4.39%{transform:translateX(-130px)}7.89%{transform:translateX(-260px)}8.3%{transform:translateX(-390px)}9.08%{transform:translateX(-520px)}14.75%{transform:translateX(-650px)}12.45%{transform:translateX(-780px)}13.77%{transform:translateX(-910px)}14.17%{transform:translateX(-1040px)}20.04%{transform:translateX(-1170px)}17.27%{transform:translateX(-1300px)}18.26%{transform:translateX(-1430px)}19.26%{transform:translateX(-1560px)}20.9%{transform:translateX(-1690px)}21.64%{transform:translateX(-1820px)}22.48%{transform:translateX(-1950px)}23.74%{transform:translateX(-2080px)}24.4%{transform:translateX(-2210px)}25.39%{transform:translateX(-2340px)}26.97%{transform:translateX(-2470px)}27.76%{transform:translateX(-2600px)}28.1%{transform:translateX(-2730px)}28.82%{transform:translateX(-2860px)}35.55%{transform:translateX(-2990px)}40.84%{transform:translateX(-3120px)}43.68%{transform:translateX(-3250px)}51.45%{transform:translateX(-3380px)}56.73%{transform:translateX(-3510px)}57.27%{transform:translateX(-3770px)}57.81%{transform:translateX(-3900px)}53.05%{transform:translateX(-4160px)}53.57%{transform:translateX(-4420px)}54.1%{transform:translateX(-4680px)}54.63%{transform:translateX(-4940px)}55.16%{transform:translateX(-5200px)}55.68%{transform:translateX(-5460px)}56.21%{transform:translateX(-5720px)}56.74%{transform:translateX(-5980px)}57.28%{transform:translateX(-6240px)}57.79%{transform:translateX(-6500px)}58.31%{transform:translateX(-6760px)}58.86%{transform:translateX(-7020px)}59.37%{transform:translateX(-7280px)}59.9%{transform:translateX(-7540px)}60.43%{transform:translateX(-7800px)}60.97%{transform:translateX(-8060px)}61.48%{transform:translateX(-8190px)}61.49%{transform:translateX(-8320px)}62.02%{transform:translateX(-8450px)}62.03%{transform:translateX(-8580px)}62.55%{transform:translateX(-8840px)}62.73%{transform:translateX(-9100px)}63.78%{transform:translateX(-9230px)}63.86%{transform:translateX(-9490px)}63.87%{transform:translateX(-10660px)}68.51%{transform:translateX(-10790px)}69.82%{transform:translateX(-11050px)}70%{transform:translateX(-11440px)}71.26%{transform:translateX(-11570px)}71.56%{transform:translateX(-11700px)}to{transform:translateX(-11830px)}}.a{fill:#282d35}.f,.g,.h{fill:#71bef2;white-space:pre}.g,.h{fill:#b9c0cb}.h{fill:#d290e4}.i{font-weight:700}.i,.j,.k{fill:#b9bfca;white-space:pre}.k{fill:#a8cc8c}</style><g font-family="Monaco,Consolas,Menlo,'Bitstream Vera Sans Mono','Powerline Symbols',monospace" font-size="1.67"><defs><symbol id="1"><text y="1.67" class="f">✈</text></symbol><symbol id="2"><text y="1.67" class="f">✈</text><text x="2.004" y="1.67" class="g">gyro</text></symbol><symbol id="3"><text y="1.67" class="f">✈</text><text x="2.004" y="1.67" class="g">gyro</text><text x="7.014" y="1.67" class="g">up</text></symbol><symbol id="4"><text y="1.67" class="f">✈</text><text x="2.004" y="1.67" class="g">gyro</text><text x="7.014" y="1.67" class="g">up</text><text x="10.02" y="1.67" class="g">example.gyro</text><text x="23.046" y="1.67" class="g">--verbose</text></symbol><symbol id="5"><text y="1.67" class="h">↓</text><text x="2.004" y="1.67" class="h">Loading</text><text x="10.02" y="1.67" class="h">plugin:</text><text x="18.036" y="1.67" class="g">gyro:gyro-aws-provider:0.99.1-SNAPSHOT</text></symbol><symbol id="6"><text y="1.67" class="h">↓</text><text x="2.004" y="1.67" class="h">Loading</text><text x="10.02" y="1.67" class="h">plugin:</text><text x="18.036" y="1.67" class="g">gyro:gyro-brightspot-plugin:0.99.1-SNAPSHOT</text></symbol><symbol id="7"><text y="1.67" class="h">⟳</text><text x="2.004" y="1.67" class="h">Refreshing</text><text x="13.026" y="1.67" class="h">resources:</text><text x="24.048" y="1.67" class="g">4</text><text x="26.052" y="1.67" class="g">started,</text><text x="35.07" y="1.67" class="g">0</text><text x="37.074" y="1.67" class="g">done</text></symbol><symbol id="8"><text y="1.67" class="h">⟳</text><text x="2.004" y="1.67" class="h">Refreshing</text><text x="13.026" y="1.67" class="h">resources:</text><text x="24.048" y="1.67" class="g">4</text><text x="26.052" y="1.67" class="g">started,</text><text x="35.07" y="1.67" class="g">2</text><text x="37.074" y="1.67" class="g">done</text></symbol><symbol id="9"><text y="1.67" class="h">⟳</text><text x="2.004" y="1.67" class="h">Refreshed</text><text x="12.024" y="1.67" class="h">resources:</text><text x="23.046" y="1.67" class="g">4</text></symbol><symbol id="10"><text y="1.67" class="i">Looking</text><text x="8.016" y="1.67" class="i">for</text><text x="12.024" y="1.67" class="i">changes...</text></symbol><symbol id="11"><text y="1.67" class="j">=</text><text x="2.004" y="1.67" class="j">Keep</text><text x="7.014" y="1.67" class="j">aws::security-group</text><text x="27.054" y="1.67" class="j">security-group</text><text x="42.084" y="1.67" class="j">(sg-00e3a553dd6c85e26)</text></symbol><symbol id="12"><text x="4.008" y="1.67" class="k">+</text><text x="6.012" y="1.67" class="k">Create</text><text x="13.026" y="1.67" class="k">ingress</text><text x="21.042" y="1.67" class="k">80</text><text x="24.048" y="1.67" class="k">80</text><text x="27.054" y="1.67" class="k">tcp</text><text x="31.062" y="1.67" class="k">0.0.0.0/0</text></symbol><symbol id="13"><text x="4.008" y="1.67" class="g">·</text><text x="6.012" y="1.67" class="g">cidr-block:</text><text x="18.036" y="1.67" class="g">&apos;0.0.0.0/0&apos;</text></symbol><symbol id="14"><text x="4.008" y="1.67" class="g">·</text><text x="6.012" y="1.67" class="g">description:</text><text x="19.038" y="1.67" class="g">&apos;allow</text><text x="26.052" y="1.67" class="g">inbound</text><text x="34.068" y="1.67" class="g">http</text><text x="39.078" y="1.67" class="g">traffic&apos;</text></symbol><symbol id="15"><text x="4.008" y="1.67" class="g">·</text><text x="6.012" y="1.67" class="g">from-port:</text><text x="17.034" y="1.67" class="g">80</text></symbol><symbol id="16"><text x="4.008" y="1.67" class="g">·</text><text x="6.012" y="1.67" class="g">protocol:</text><text x="16.032" y="1.67" class="g">&apos;tcp&apos;</text></symbol><symbol id="17"><text x="4.008" y="1.67" class="g">·</text><text x="6.012" y="1.67" class="g">to-port:</text><text x="15.03" y="1.67" class="g">80</text></symbol><symbol id="18"><text y="1.67" class="g">Are</text><text x="4.008" y="1.67" class="g">you</text><text x="8.016" y="1.67" class="g">sure</text><text x="13.026" y="1.67" class="g">you</text><text x="17.034" y="1.67" class="g">want</text><text x="22.044" y="1.67" class="g">to</text><text x="25.05" y="1.67" class="g">change</text><text x="32.064" y="1.67" class="g">resources?</text><text x="43.086" y="1.67" class="g">(y/N)</text><text x="49.098" y="1.67" class="g">y</text></symbol><symbol id="19"><text y="1.67" class="h">+</text><text x="2.004" y="1.67" class="h">Creating</text><text x="11.022" y="1.67" class="h">ingress</text><text x="19.038" y="1.67" class="h">80</text><text x="22.044" y="1.67" class="h">80</text><text x="25.05" y="1.67" class="h">tcp</text><text x="29.058" y="1.67" class="h">0.0.0.0/0</text><text x="39.078" y="1.67" class="h">for</text><text x="43.086" y="1.67" class="h">aws::security-group</text><text x="63.126" y="1.67" class="h">security-group</text></symbol><symbol id="20"><text y="1.67" class="g">·</text><text x="2.004" y="1.67" class="g">cidr-block:</text><text x="14.028" y="1.67" class="g">&apos;0.0.0.0/0&apos;</text></symbol><symbol id="21"><text y="1.67" class="g">·</text><text x="2.004" y="1.67" class="g">description:</text><text x="15.03" y="1.67" class="g">&apos;allow</text><text x="22.044" y="1.67" class="g">inbound</text><text x="30.06" y="1.67" class="g">http</text><text x="35.07" y="1.67" class="g">traffic&apos;</text></symbol><symbol id="22"><text y="1.67" class="g">·</text><text x="2.004" y="1.67" class="g">from-port:</text><text x="13.026" y="1.67" class="g">80</text></symbol><symbol id="23"><text y="1.67" class="g">·</text><text x="2.004" y="1.67" class="g">protocol:</text><text x="12.024" y="1.67" class="g">&apos;tcp&apos;</text></symbol><symbol id="24"><text y="1.67" class="g">·</text><text x="2.004" y="1.67" class="g">to-port:</text><text x="11.022" y="1.67" class="g">80</text></symbol><symbol id="25"><text y="1.67" style="white-space:pre" fill="#a8cc8c" font-weight="700">OK</text></symbol><symbol id="a"><path fill="transparent" d="M0 0h130v35H0z"/></symbol><symbol id="b"><path fill="#6f7683" d="M0 0h1.102v2.171H0z"/></symbol></defs><path class="a" d="M0 0h130v75.985H0z"/><g style="animation-duration:18.932177s;animation-iteration-count:infinite;animation-name:o;animation-timing-function:steps(1,end)"><svg width="11960"><svg><use xlink:href="#a"/><use xlink:href="#b" x="-.004"/></svg><svg x="130"><use xlink:href="#a"/><use xlink:href="#b" x="1.996"/><use xlink:href="#1"/></svg><svg x="260"><use xlink:href="#a"/><use xlink:href="#b" x="2.996"/><text y="1.67" class="f">✈</text><text x="2.004" y="1.67" class="g">g</text></svg><svg x="390"><use xlink:href="#a"/><use xlink:href="#b" x="3.996"/><text y="1.67" class="f">✈</text><text x="2.004" y="1.67" class="g">gy</text></svg><svg x="520"><use xlink:href="#a"/><use xlink:href="#b" x="4.996"/><text y="1.67" class="f">✈</text><text x="2.004" y="1.67" class="g">gyr</text></svg><svg x="650"><use xlink:href="#a"/><use xlink:href="#b" x="5.996"/><use xlink:href="#2"/></svg><svg x="780"><use xlink:href="#a"/><use xlink:href="#b" x="6.996"/><use xlink:href="#2"/></svg><svg x="910"><use xlink:href="#a"/><use xlink:href="#b" x="7.996"/><text y="1.67" class="f">✈</text><text x="2.004" y="1.67" class="g">gyro</text><text x="7.014" y="1.67" class="g">u</text></svg><svg x="1040"><use xlink:href="#a"/><use xlink:href="#b" x="8.996"/><use xlink:href="#3"/></svg><svg x="1170"><use xlink:href="#a"/><use xlink:href="#b" x="9.996"/><use xlink:href="#3"/></svg><svg x="1300"><use xlink:href="#a"/><use xlink:href="#b" x="10.996"/><text y="1.67" class="f">✈</text><text x="2.004" y="1.67" class="g">gyro</text><text x="7.014" y="1.67" class="g">up</text><text x="10.02" y="1.67" class="g">e</text></svg><svg x="1430"><use xlink:href="#a"/><use xlink:href="#b" x="11.996"/><text y="1.67" class="f">✈</text><text x="2.004" y="1.67" class="g">gyro</text><text x="7.014" y="1.67" class="g">up</text><text x="10.02" y="1.67" class="g">ex</text></svg><svg x="1560"><use xlink:href="#a"/><use xlink:href="#b" x="22.996"/><text y="1.67" class="f">✈</text><text x="2.004" y="1.67" class="g">gyro</text><text x="7.014" y="1.67" class="g">up</text><text x="10.02" y="1.67" class="g">example.gyro</text></svg><svg x="1690"><use xlink:href="#a"/><use xlink:href="#b" x="23.996"/><text y="1.67" class="f">✈</text><text x="2.004" y="1.67" class="g">gyro</text><text x="7.014" y="1.67" class="g">up</text><text x="10.02" y="1.67" class="g">example.gyro</text><text x="23.046" y="1.67" class="g">-</text></svg><svg x="1820"><use xlink:href="#a"/><use xlink:href="#b" x="24.996"/><text y="1.67" class="f">✈</text><text x="2.004" y="1.67" class="g">gyro</text><text x="7.014" y="1.67" class="g">up</text><text x="10.02" y="1.67" class="g">example.gyro</text><text x="23.046" y="1.67" class="g">--</text></svg><svg x="1950"><use xlink:href="#a"/><use xlink:href="#b" x="25.996"/><text y="1.67" class="f">✈</text><text x="2.004" y="1.67" class="g">gyro</text><text x="7.014" y="1.67" class="g">up</text><text x="10.02" y="1.67" class="g">example.gyro</text><text x="23.046" y="1.67" class="g">--v</text></svg><svg x="2080"><use xlink:href="#a"/><use xlink:href="#b" x="26.996"/><text y="1.67" class="f">✈</text><text x="2.004" y="1.67" class="g">gyro</text><text x="7.014" y="1.67" class="g">up</text><text x="10.02" y="1.67" class="g">example.gyro</text><text x="23.046" y="1.67" class="g">--ve</text></svg><svg x="2210"><use xlink:href="#a"/><use xlink:href="#b" x="27.996"/><text y="1.67" class="f">✈</text><text x="2.004" y="1.67" class="g">gyro</text><text x="7.014" y="1.67" class="g">up</text><text x="10.02" y="1.67" class="g">example.gyro</text><text x="23.046" y="1.67" class="g">--ver</text></svg><svg x="2340"><use xlink:href="#a"/><use xlink:href="#b" x="28.996"/><text y="1.67" class="f">✈</text><text x="2.004" y="1.67" class="g">gyro</text><text x="7.014" y="1.67" class="g">up</text><text x="10.02" y="1.67" class="g">example.gyro</text><text x="23.046" y="1.67" class="g">--verb</text></svg><svg x="2470"><use xlink:href="#a"/><use xlink:href="#b" x="29.996"/><text y="1.67" class="f">✈</text><text x="2.004" y="1.67" class="g">gyro</text><text x="7.014" y="1.67" class="g">up</text><text x="10.02" y="1.67" class="g">example.gyro</text><text x="23.046" y="1.67" class="g">--verbo</text></svg><svg x="2600"><use xlink:href="#a"/><use xlink:href="#b" x="30.996"/><text y="1.67" class="f">✈</text><text x="2.004" y="1.67" class="g">gyro</text><text x="7.014" y="1.67" class="g">up</text><text x="10.02" y="1.67" class="g">example.gyro</text><text x="23.046" y="1.67" class="g">--verbos</text></svg><svg x="2730"><use xlink:href="#a"/><use xlink:href="#b" x="31.996"/><use xlink:href="#4"/></svg><svg x="2860"><use xlink:href="#a"/><use xlink:href="#b" x="-.004" y="2.146"/><use xlink:href="#4"/></svg><svg x="2990"><use xlink:href="#a"/><use xlink:href="#b" x="55.996" y="2.146"/><use xlink:href="#4"/><use xlink:href="#5" y="2.171"/></svg><svg x="3120"><use xlink:href="#a"/><use xlink:href="#b" x="-.004" y="4.317"/><use xlink:href="#4"/><use xlink:href="#5" y="2.171"/></svg><svg x="3250"><use xlink:href="#a"/><use xlink:href="#b" x="-.004" y="6.488"/><use xlink:href="#4"/><use xlink:href="#5" y="2.171"/><use xlink:href="#6" y="4.342"/></svg><svg x="3380"><use xlink:href="#a"/><use xlink:href="#b" x="-.004" y="6.488"/><use xlink:href="#4"/><use xlink:href="#5" y="2.171"/><use xlink:href="#6" y="4.342"/></svg><svg x="3510"><use xlink:href="#a"/><use xlink:href="#b" x="40.996" y="6.488"/><use xlink:href="#4"/><use xlink:href="#5" y="2.171"/><use xlink:href="#6" y="4.342"/><text y="8.183" class="h">⟳</text><text x="2.004" y="8.183" class="h">Refreshing</text><text x="13.026" y="8.183" class="h">resources:</text><text x="24.048" y="8.183" class="g">0</text><text x="26.052" y="8.183" class="g">started,</text><text x="35.07" y="8.183" class="g">0</text><text x="37.074" y="8.183" class="g">done</text></svg><svg x="3640"><use xlink:href="#a"/><use xlink:href="#b" x="-.004" y="6.488"/><use xlink:href="#4"/><use xlink:href="#5" y="2.171"/><use xlink:href="#6" y="4.342"/></svg><svg x="3770"><use xlink:href="#a"/><use xlink:href="#b" x="40.996" y="6.488"/><use xlink:href="#4"/><use xlink:href="#5" y="2.171"/><use xlink:href="#6" y="4.342"/><use xlink:href="#7" y="6.513"/></svg><svg x="3900"><use xlink:href="#a"/><use xlink:href="#b" x="40.996" y="6.488"/><use xlink:href="#4"/><use xlink:href="#5" y="2.171"/><use xlink:href="#6" y="4.342"/><use xlink:href="#7" y="6.513"/></svg><svg x="4030"><use xlink:href="#a"/><use xlink:href="#b" x="-.004" y="6.488"/><use xlink:href="#4"/><use xlink:href="#5" y="2.171"/><use xlink:href="#6" y="4.342"/></svg><svg x="4160"><use xlink:href="#a"/><use xlink:href="#b" x="40.996" y="6.488"/><use xlink:href="#4"/><use xlink:href="#5" y="2.171"/><use xlink:href="#6" y="4.342"/><use xlink:href="#7" y="6.513"/></svg><svg x="4290"><use xlink:href="#a"/><use xlink:href="#b" x="-.004" y="6.488"/><use xlink:href="#4"/><use xlink:href="#5" y="2.171"/><use xlink:href="#6" y="4.342"/></svg><svg x="4420"><use xlink:href="#a"/><use xlink:href="#b" x="40.996" y="6.488"/><use xlink:href="#4"/><use xlink:href="#5" y="2.171"/><use xlink:href="#6" y="4.342"/><use xlink:href="#7" y="6.513"/></svg><svg x="4550"><use xlink:href="#a"/><use xlink:href="#b" x="-.004" y="6.488"/><use xlink:href="#4"/><use xlink:href="#5" y="2.171"/><use xlink:href="#6" y="4.342"/></svg><svg x="4680"><use xlink:href="#a"/><use xlink:href="#b" x="40.996" y="6.488"/><use xlink:href="#4"/><use xlink:href="#5" y="2.171"/><use xlink:href="#6" y="4.342"/><use xlink:href="#7" y="6.513"/></svg><svg x="4810"><use xlink:href="#a"/><use xlink:href="#b" x="-.004" y="6.488"/><use xlink:href="#4"/><use xlink:href="#5" y="2.171"/><use xlink:href="#6" y="4.342"/></svg><svg x="4940"><use xlink:href="#a"/><use xlink:href="#b" x="40.996" y="6.488"/><use xlink:href="#4"/><use xlink:href="#5" y="2.171"/><use xlink:href="#6" y="4.342"/><use xlink:href="#7" y="6.513"/></svg><svg x="5070"><use xlink:href="#a"/><use xlink:href="#b" x="-.004" y="6.488"/><use xlink:href="#4"/><use xlink:href="#5" y="2.171"/><use xlink:href="#6" y="4.342"/></svg><svg x="5200"><use xlink:href="#a"/><use xlink:href="#b" x="40.996" y="6.488"/><use xlink:href="#4"/><use xlink:href="#5" y="2.171"/><use xlink:href="#6" y="4.342"/><use xlink:href="#7" y="6.513"/></svg><svg x="5330"><use xlink:href="#a"/><use xlink:href="#b" x="-.004" y="6.488"/><use xlink:href="#4"/><use xlink:href="#5" y="2.171"/><use xlink:href="#6" y="4.342"/></svg><svg x="5460"><use xlink:href="#a"/><use xlink:href="#b" x="40.996" y="6.488"/><use xlink:href="#4"/><use xlink:href="#5" y="2.171"/><use xlink:href="#6" y="4.342"/><use xlink:href="#7" y="6.513"/></svg><svg x="5590"><use xlink:href="#a"/><use xlink:href="#b" x="-.004" y="6.488"/><use xlink:href="#4"/><use xlink:href="#5" y="2.171"/><use xlink:href="#6" y="4.342"/></svg><svg x="5720"><use xlink:href="#a"/><use xlink:href="#b" x="40.996" y="6.488"/><use xlink:href="#4"/><use xlink:href="#5" y="2.171"/><use xlink:href="#6" y="4.342"/><use xlink:href="#7" y="6.513"/></svg><svg x="5850"><use xlink:href="#a"/><use xlink:href="#b" x="-.004" y="6.488"/><use xlink:href="#4"/><use xlink:href="#5" y="2.171"/><use xlink:href="#6" y="4.342"/></svg><svg x="5980"><use xlink:href="#a"/><use xlink:href="#b" x="40.996" y="6.488"/><use xlink:href="#4"/><use xlink:href="#5" y="2.171"/><use xlink:href="#6" y="4.342"/><use xlink:href="#7" y="6.513"/></svg><svg x="6110"><use xlink:href="#a"/><use xlink:href="#b" x="-.004" y="6.488"/><use xlink:href="#4"/><use xlink:href="#5" y="2.171"/><use xlink:href="#6" y="4.342"/></svg><svg x="6240"><use xlink:href="#a"/><use xlink:href="#b" x="40.996" y="6.488"/><use xlink:href="#4"/><use xlink:href="#5" y="2.171"/><use xlink:href="#6" y="4.342"/><use xlink:href="#7" y="6.513"/></svg><svg x="6370"><use xlink:href="#a"/><use xlink:href="#b" x="-.004" y="6.488"/><use xlink:href="#4"/><use xlink:href="#5" y="2.171"/><use xlink:href="#6" y="4.342"/></svg><svg x="6500"><use xlink:href="#a"/><use xlink:href="#b" x="40.996" y="6.488"/><use xlink:href="#4"/><use xlink:href="#5" y="2.171"/><use xlink:href="#6" y="4.342"/><use xlink:href="#7" y="6.513"/></svg><svg x="6630"><use xlink:href="#a"/><use xlink:href="#b" x="-.004" y="6.488"/><use xlink:href="#4"/><use xlink:href="#5" y="2.171"/><use xlink:href="#6" y="4.342"/></svg><svg x="6760"><use xlink:href="#a"/><use xlink:href="#b" x="40.996" y="6.488"/><use xlink:href="#4"/><use xlink:href="#5" y="2.171"/><use xlink:href="#6" y="4.342"/><use xlink:href="#7" y="6.513"/></svg><svg x="6890"><use xlink:href="#a"/><use xlink:href="#b" x="-.004" y="6.488"/><use xlink:href="#4"/><use xlink:href="#5" y="2.171"/><use xlink:href="#6" y="4.342"/></svg><svg x="7020"><use xlink:href="#a"/><use xlink:href="#b" x="40.996" y="6.488"/><use xlink:href="#4"/><use xlink:href="#5" y="2.171"/><use xlink:href="#6" y="4.342"/><use xlink:href="#7" y="6.513"/></svg><svg x="7150"><use xlink:href="#a"/><use xlink:href="#b" x="-.004" y="6.488"/><use xlink:href="#4"/><use xlink:href="#5" y="2.171"/><use xlink:href="#6" y="4.342"/></svg><svg x="7280"><use xlink:href="#a"/><use xlink:href="#b" x="40.996" y="6.488"/><use xlink:href="#4"/><use xlink:href="#5" y="2.171"/><use xlink:href="#6" y="4.342"/><use xlink:href="#7" y="6.513"/></svg><svg x="7410"><use xlink:href="#a"/><use xlink:href="#b" x="-.004" y="6.488"/><use xlink:href="#4"/><use xlink:href="#5" y="2.171"/><use xlink:href="#6" y="4.342"/></svg><svg x="7540"><use xlink:href="#a"/><use xlink:href="#b" x="40.996" y="6.488"/><use xlink:href="#4"/><use xlink:href="#5" y="2.171"/><use xlink:href="#6" y="4.342"/><text y="8.183" class="h">⟳</text><text x="2.004" y="8.183" class="h">Refreshing</text><text x="13.026" y="8.183" class="h">resources:</text><text x="24.048" y="8.183" class="g">4</text><text x="26.052" y="8.183" class="g">started,</text><text x="35.07" y="8.183" class="g">1</text><text x="37.074" y="8.183" class="g">done</text></svg><svg x="7670"><use xlink:href="#a"/><use xlink:href="#b" x="-.004" y="6.488"/><use xlink:href="#4"/><use xlink:href="#5" y="2.171"/><use xlink:href="#6" y="4.342"/></svg><svg x="7800"><use xlink:href="#a"/><use xlink:href="#b" x="40.996" y="6.488"/><use xlink:href="#4"/><use xlink:href="#5" y="2.171"/><use xlink:href="#6" y="4.342"/><use xlink:href="#8" y="6.513"/></svg><svg x="7930"><use xlink:href="#a"/><use xlink:href="#b" x="-.004" y="6.488"/><use xlink:href="#4"/><use xlink:href="#5" y="2.171"/><use xlink:href="#6" y="4.342"/></svg><svg x="8060"><use xlink:href="#a"/><use xlink:href="#b" x="40.996" y="6.488"/><use xlink:href="#4"/><use xlink:href="#5" y="2.171"/><use xlink:href="#6" y="4.342"/><use xlink:href="#8" y="6.513"/></svg><svg x="8190"><use xlink:href="#a"/><use xlink:href="#b" x="-.004" y="6.488"/><use xlink:href="#4"/><use xlink:href="#5" y="2.171"/><use xlink:href="#6" y="4.342"/></svg><svg x="8320"><use xlink:href="#a"/><use xlink:href="#b" x="40.996" y="6.488"/><use xlink:href="#4"/><use xlink:href="#5" y="2.171"/><use xlink:href="#6" y="4.342"/><use xlink:href="#8" y="6.513"/></svg><svg x="8450"><use xlink:href="#a"/><use xlink:href="#b" x="-.004" y="6.488"/><use xlink:href="#4"/><use xlink:href="#5" y="2.171"/><use xlink:href="#6" y="4.342"/></svg><svg x="8580"><use xlink:href="#a"/><use xlink:href="#b" x="40.996" y="6.488"/><use xlink:href="#4"/><use xlink:href="#5" y="2.171"/><use xlink:href="#6" y="4.342"/><use xlink:href="#8" y="6.513"/></svg><svg x="8710"><use xlink:href="#a"/><use xlink:href="#b" x="-.004" y="6.488"/><use xlink:href="#4"/><use xlink:href="#5" y="2.171"/><use xlink:href="#6" y="4.342"/></svg><svg x="8840"><use xlink:href="#a"/><use xlink:href="#b" x="40.996" y="6.488"/><use xlink:href="#4"/><use xlink:href="#5" y="2.171"/><use xlink:href="#6" y="4.342"/><text y="8.183" class="h">⟳</text><text x="2.004" y="8.183" class="h">Refreshing</text><text x="13.026" y="8.183" class="h">resources:</text><text x="24.048" y="8.183" class="g">4</text><text x="26.052" y="8.183" class="g">started,</text><text x="35.07" y="8.183" class="g">3</text><text x="37.074" y="8.183" class="g">done</text></svg><svg x="8970"><use xlink:href="#a"/><use xlink:href="#b" x="-.004" y="6.488"/><use xlink:href="#4"/><use xlink:href="#5" y="2.171"/><use xlink:href="#6" y="4.342"/></svg><svg x="9100"><use xlink:href="#a"/><use xlink:href="#b" x="-.004" y="8.659"/><use xlink:href="#4"/><use xlink:href="#5" y="2.171"/><use xlink:href="#6" y="4.342"/><use xlink:href="#9" y="6.513"/></svg><svg x="9230"><use xlink:href="#a"/><use xlink:href="#b" x="-.004" y="15.172"/><use xlink:href="#4"/><use xlink:href="#5" y="2.171"/><use xlink:href="#6" y="4.342"/><use xlink:href="#9" y="6.513"/><use xlink:href="#10" y="10.855"/></svg><svg x="9360"><use xlink:href="#a"/><use xlink:href="#b" x="63.996" y="15.172"/><use xlink:href="#4"/><use xlink:href="#5" y="2.171"/><use xlink:href="#6" y="4.342"/><use xlink:href="#9" y="6.513"/><use xlink:href="#10" y="10.855"/><use xlink:href="#11" y="15.197"/></svg><svg x="9490"><use xlink:href="#a"/><use xlink:href="#b" x="-.004" y="19.514"/><use xlink:href="#4"/><use xlink:href="#5" y="2.171"/><use xlink:href="#6" y="4.342"/><use xlink:href="#9" y="6.513"/><use xlink:href="#10" y="10.855"/><use xlink:href="#11" y="15.197"/></svg><svg x="9620"><use xlink:href="#a"/><use xlink:href="#b" x="1.996" y="19.514"/><use xlink:href="#4"/><use xlink:href="#5" y="2.171"/><use xlink:href="#6" y="4.342"/><use xlink:href="#9" y="6.513"/><use xlink:href="#10" y="10.855"/><use xlink:href="#11" y="15.197"/></svg><svg x="9750"><use xlink:href="#a"/><use xlink:href="#b" x="39.996" y="19.514"/><use xlink:href="#4"/><use xlink:href="#5" y="2.171"/><use xlink:href="#6" y="4.342"/><use xlink:href="#9" y="6.513"/><use xlink:href="#10" y="10.855"/><use xlink:href="#11" y="15.197"/><use xlink:href="#12" y="19.539"/></svg><svg x="9880"><use xlink:href="#a"/><use xlink:href="#b" x="3.996" y="21.685"/><use xlink:href="#4"/><use xlink:href="#5" y="2.171"/><use xlink:href="#6" y="4.342"/><use xlink:href="#9" y="6.513"/><use xlink:href="#10" y="10.855"/><use xlink:href="#11" y="15.197"/><use xlink:href="#12" y="19.539"/></svg><svg x="10010"><use xlink:href="#a"/><use xlink:href="#b" x="28.996" y="21.685"/><use xlink:href="#4"/><use xlink:href="#5" y="2.171"/><use xlink:href="#6" y="4.342"/><use xlink:href="#9" y="6.513"/><use xlink:href="#10" y="10.855"/><use xlink:href="#11" y="15.197"/><use xlink:href="#12" y="19.539"/><use xlink:href="#13" y="21.71"/></svg><svg x="10140"><use xlink:href="#a"/><use xlink:href="#b" x="3.996" y="26.027"/><use xlink:href="#4"/><use xlink:href="#5" y="2.171"/><use xlink:href="#6" y="4.342"/><use xlink:href="#9" y="6.513"/><use xlink:href="#10" y="10.855"/><use xlink:href="#11" y="15.197"/><use xlink:href="#12" y="19.539"/><use xlink:href="#13" y="21.71"/><use xlink:href="#14" y="23.881"/></svg><svg x="10270"><use xlink:href="#a"/><use xlink:href="#b" x=".996" y="30.369"/><use xlink:href="#4"/><use xlink:href="#5" y="2.171"/><use xlink:href="#6" y="4.342"/><use xlink:href="#9" y="6.513"/><use xlink:href="#10" y="10.855"/><use xlink:href="#11" y="15.197"/><use xlink:href="#12" y="19.539"/><use xlink:href="#13" y="21.71"/><use xlink:href="#14" y="23.881"/><use xlink:href="#15" y="26.052"/><use xlink:href="#16" y="28.223"/></svg><svg x="10400"><use xlink:href="#a"/><use xlink:href="#b" x="16.996" y="30.369"/><use xlink:href="#4"/><use xlink:href="#5" y="2.171"/><use xlink:href="#6" y="4.342"/><use xlink:href="#9" y="6.513"/><use xlink:href="#10" y="10.855"/><use xlink:href="#11" y="15.197"/><use xlink:href="#12" y="19.539"/><use xlink:href="#13" y="21.71"/><use xlink:href="#14" y="23.881"/><use xlink:href="#15" y="26.052"/><use xlink:href="#16" y="28.223"/><use xlink:href="#17" y="30.394"/></svg><svg x="10530"><use xlink:href="#a"/><use xlink:href="#b" x="-.004" y="34.711"/><use xlink:href="#4"/><use xlink:href="#5" y="2.171"/><use xlink:href="#6" y="4.342"/><use xlink:href="#9" y="6.513"/><use xlink:href="#10" y="10.855"/><use xlink:href="#11" y="15.197"/><use xlink:href="#12" y="19.539"/><use xlink:href="#13" y="21.71"/><use xlink:href="#14" y="23.881"/><use xlink:href="#15" y="26.052"/><use xlink:href="#16" y="28.223"/><use xlink:href="#17" y="30.394"/></svg><svg x="10660"><use xlink:href="#a"/><use xlink:href="#b" x="48.996" y="36.882"/><use xlink:href="#4"/><use xlink:href="#5" y="2.171"/><use xlink:href="#6" y="4.342"/><use xlink:href="#9" y="6.513"/><use xlink:href="#10" y="10.855"/><use xlink:href="#11" y="15.197"/><use xlink:href="#12" y="19.539"/><use xlink:href="#13" y="21.71"/><use xlink:href="#14" y="23.881"/><use xlink:href="#15" y="26.052"/><use xlink:href="#16" y="28.223"/><use xlink:href="#17" y="30.394"/><text y="38.577" class="g">Are</text><text x="4.008" y="38.577" class="g">you</text><text x="8.016" y="38.577" class="g">sure</text><text x="13.026" y="38.577" class="g">you</text><text x="17.034" y="38.577" class="g">want</text><text x="22.044" y="38.577" class="g">to</text><text x="25.05" y="38.577" class="g">change</text><text x="32.064" y="38.577" class="g">resources?</text><text x="43.086" y="38.577" class="g">(y/N)</text></svg><svg x="10790"><use xlink:href="#a"/><use xlink:href="#b" x="49.996" y="36.882"/><use xlink:href="#4"/><use xlink:href="#5" y="2.171"/><use xlink:href="#6" y="4.342"/><use xlink:href="#9" y="6.513"/><use xlink:href="#10" y="10.855"/><use xlink:href="#11" y="15.197"/><use xlink:href="#12" y="19.539"/><use xlink:href="#13" y="21.71"/><use xlink:href="#14" y="23.881"/><use xlink:href="#15" y="26.052"/><use xlink:href="#16" y="28.223"/><use xlink:href="#17" y="30.394"/><use xlink:href="#18" y="36.907"/></svg><svg x="10920"><use xlink:href="#a"/><use xlink:href="#b" x="-.004" y="39.053"/><use xlink:href="#4"/><use xlink:href="#5" y="2.171"/><use xlink:href="#6" y="4.342"/><use xlink:href="#9" y="6.513"/><use xlink:href="#10" y="10.855"/><use xlink:href="#11" y="15.197"/><use xlink:href="#12" y="19.539"/><use xlink:href="#13" y="21.71"/><use xlink:href="#14" y="23.881"/><use xlink:href="#15" y="26.052"/><use xlink:href="#16" y="28.223"/><use xlink:href="#17" y="30.394"/><use xlink:href="#18" y="36.907"/></svg><svg x="11050"><use xlink:href="#a"/><use xlink:href="#b" x="-.004" y="41.224"/><use xlink:href="#4"/><use xlink:href="#5" y="2.171"/><use xlink:href="#6" y="4.342"/><use xlink:href="#9" y="6.513"/><use xlink:href="#10" y="10.855"/><use xlink:href="#11" y="15.197"/><use xlink:href="#12" y="19.539"/><use xlink:href="#13" y="21.71"/><use xlink:href="#14" y="23.881"/><use xlink:href="#15" y="26.052"/><use xlink:href="#16" y="28.223"/><use xlink:href="#17" y="30.394"/><use xlink:href="#18" y="36.907"/></svg><svg x="11180"><use xlink:href="#a"/><use xlink:href="#b" x="76.996" y="41.224"/><use xlink:href="#4"/><use xlink:href="#5" y="2.171"/><use xlink:href="#6" y="4.342"/><use xlink:href="#9" y="6.513"/><use xlink:href="#10" y="10.855"/><use xlink:href="#11" y="15.197"/><use xlink:href="#12" y="19.539"/><use xlink:href="#13" y="21.71"/><use xlink:href="#14" y="23.881"/><use xlink:href="#15" y="26.052"/><use xlink:href="#16" y="28.223"/><use xlink:href="#17" y="30.394"/><use xlink:href="#18" y="36.907"/><use xlink:href="#19" y="41.249"/></svg><svg x="11310"><use xlink:href="#a"/><use xlink:href="#b" x="14.996" y="47.737"/><use xlink:href="#4"/><use xlink:href="#5" y="2.171"/><use xlink:href="#6" y="4.342"/><use xlink:href="#9" y="6.513"/><use xlink:href="#10" y="10.855"/><use xlink:href="#11" y="15.197"/><use xlink:href="#12" y="19.539"/><use xlink:href="#13" y="21.71"/><use xlink:href="#14" y="23.881"/><use xlink:href="#15" y="26.052"/><use xlink:href="#16" y="28.223"/><use xlink:href="#17" y="30.394"/><use xlink:href="#18" y="36.907"/><use xlink:href="#19" y="41.249"/><use xlink:href="#20" y="43.42"/><use xlink:href="#21" y="45.591"/><use xlink:href="#22" y="47.762"/></svg><svg x="11440"><use xlink:href="#a"/><use xlink:href="#b" x="12.996" y="52.079"/><use xlink:href="#4"/><use xlink:href="#5" y="2.171"/><use xlink:href="#6" y="4.342"/><use xlink:href="#9" y="6.513"/><use xlink:href="#10" y="10.855"/><use xlink:href="#11" y="15.197"/><use xlink:href="#12" y="19.539"/><use xlink:href="#13" y="21.71"/><use xlink:href="#14" y="23.881"/><use xlink:href="#15" y="26.052"/><use xlink:href="#16" y="28.223"/><use xlink:href="#17" y="30.394"/><use xlink:href="#18" y="36.907"/><use xlink:href="#19" y="41.249"/><use xlink:href="#20" y="43.42"/><use xlink:href="#21" y="45.591"/><use xlink:href="#22" y="47.762"/><use xlink:href="#23" y="49.933"/><use xlink:href="#24" y="52.104"/></svg><svg x="11570"><use xlink:href="#a"/><use xlink:href="#b" x="-.004" y="58.592"/><use xlink:href="#4"/><use xlink:href="#5" y="2.171"/><use xlink:href="#6" y="4.342"/><use xlink:href="#9" y="6.513"/><use xlink:href="#10" y="10.855"/><use xlink:href="#11" y="15.197"/><use xlink:href="#12" y="19.539"/><use xlink:href="#13" y="21.71"/><use xlink:href="#14" y="23.881"/><use xlink:href="#15" y="26.052"/><use xlink:href="#16" y="28.223"/><use xlink:href="#17" y="30.394"/><use xlink:href="#18" y="36.907"/><use xlink:href="#19" y="41.249"/><use xlink:href="#20" y="43.42"/><use xlink:href="#21" y="45.591"/><use xlink:href="#22" y="47.762"/><use xlink:href="#23" y="49.933"/><use xlink:href="#24" y="52.104"/><use xlink:href="#25" y="54.275"/></svg><svg x="11700"><use xlink:href="#a"/><use xlink:href="#b" x="1.996" y="58.592"/><use xlink:href="#4"/><use xlink:href="#5" y="2.171"/><use xlink:href="#6" y="4.342"/><use xlink:href="#9" y="6.513"/><use xlink:href="#10" y="10.855"/><use xlink:href="#11" y="15.197"/><use xlink:href="#12" y="19.539"/><use xlink:href="#13" y="21.71"/><use xlink:href="#14" y="23.881"/><use xlink:href="#15" y="26.052"/><use xlink:href="#16" y="28.223"/><use xlink:href="#17" y="30.394"/><use xlink:href="#18" y="36.907"/><use xlink:href="#19" y="41.249"/><use xlink:href="#20" y="43.42"/><use xlink:href="#21" y="45.591"/><use xlink:href="#22" y="47.762"/><use xlink:href="#23" y="49.933"/><use xlink:href="#24" y="52.104"/><use xlink:href="#25" y="54.275"/><use xlink:href="#1" y="58.617"/></svg><svg x="11830"><use xlink:href="#a"/><use xlink:href="#b" x="-.004" y="60.763"/><use xlink:href="#4"/><use xlink:href="#5" y="2.171"/><use xlink:href="#6" y="4.342"/><use xlink:href="#9" y="6.513"/><use xlink:href="#10" y="10.855"/><use xlink:href="#11" y="15.197"/><use xlink:href="#12" y="19.539"/><use xlink:href="#13" y="21.71"/><use xlink:href="#14" y="23.881"/><use xlink:href="#15" y="26.052"/><use xlink:href="#16" y="28.223"/><use xlink:href="#17" y="30.394"/><use xlink:href="#18" y="36.907"/><use xlink:href="#19" y="41.249"/><use xlink:href="#20" y="43.42"/><use xlink:href="#21" y="45.591"/><use xlink:href="#22" y="47.762"/><use xlink:href="#23" y="49.933"/><use xlink:href="#24" y="52.104"/><use xlink:href="#25" y="54.275"/><use xlink:href="#1" y="58.617"/></svg></svg></g></g></svg></svg>