<svg xmlns="http://www.w3.org/2000/svg" xmlns:xlink="http://www.w3.org/1999/xlink" width="1340" height="819.85"><rect width="1340" height="819.85" rx="5" ry="5" class="a"/><svg y="0%" x="0%"><circle cx="20" cy="20" r="6" fill="#ff5f58"/><circle cx="40" cy="20" r="6" fill="#ffbd2e"/><circle cx="60" cy="20" r="6" fill="#18c132"/></svg><svg height="759.85" viewBox="0 0 130 75.985" width="1300" x="15" xmlns="http://www.w3.org/2000/svg" xmlns:xlink="http://www.w3.org/1999/xlink" y="50"><style>@keyframes n{0%{transform:translateX(0)}.07%{transform:translateX(-260px)}6.01%{transform:translateX(-390px)}6.55%{transform:translateX(-520px)}6.85%{transform:translateX(-650px)}7.15%{transform:translateX(-780px)}7.59%{transform:translateX(-910px)}8.18%{transform:translateX(-1040px)}8.38%{transform:translateX(-1170px)}8.88%{transform:translateX(-1300px)}9.67%{transform:translateX(-1430px)}10.36%{transform:translateX(-1560px)}11%{transform:translateX(-1690px)}11.5%{transform:translateX(-1820px)}11.89%{transform:translateX(-1950px)}12.48%{transform:translateX(-2080px)}12.83%{transform:translateX(-2210px)}14.32%{transform:translateX(-2340px)}16.35%{transform:translateX(-2470px)}16.79%{transform:translateX(-2600px)}17.23%{transform:translateX(-2730px)}17.58%{transform:translateX(-2860px)}19.12%{transform:translateX(-2990px)}25.36%{transform:translateX(-3250px)}39.34%{transform:translateX(-3380px)}51.49%{transform:translateX(-4030px)}52.12%{transform:translateX(-4160px)}52.16%{transform:translateX(-5200px)}52.17%{transform:translateX(-5330px)}55.57%{transform:translateX(-5460px)}56.75%{transform:translateX(-5850px)}65.64%{transform:translateX(-5980px)}65.65%{transform:translateX(-6110px)}68.3%{transform:translateX(-6370px)}69.98%{transform:translateX(-6630px)}71.17%{transform:translateX(-6760px)}71.18%{transform:translateX(-6890px)}80%{transform:translateX(-7020px)}80.21%{transform:translateX(-7150px)}to{transform:translateX(-7280px)}}.a{fill:#282d35}.f,.g{fill:#71bef2;white-space:pre}.g{fill:#b9c0cb}.h{fill:#d290e4}.h,.i,.j,.k{white-space:pre}.i{fill:#b9bfca;font-weight:700}.j,.k{fill:#a8cc8c}.k{font-weight:700}</style><g font-family="Monaco,Consolas,Menlo,'Bitstream Vera Sans Mono','Powerline Symbols',monospace" font-size="1.67"><defs><symbol id="1"><text y="1.67" class="f">✈</text></symbol><symbol id="2"><text y="1.67" class="f">✈</text><text x="2.004" y="1.67" class="g">gyro</text></symbol><symbol id="3"><text y="1.67" class="f">✈</text><text x="2.004" y="1.67" class="g">gyro</text><text x="7.014" y="1.67" class="g">up</text></symbol><symbol id="4"><text y="1.67" class="f">✈</text><text x="2.004" y="1.67" class="g">gyro</text><text x="7.014" y="1.67" class="g">up</text><text x="10.02" y="1.67" class="g">example.gyro</text></symbol><symbol id="5"><text y="1.67" class="h">↓</text><text x="2.004" y="1.67" class="h">Loading</text><text x="10.02" y="1.67" class="h">plugin:</text><text x="18.036" y="1.67" class="g">gyro:gyro-aws-provider:0.99.1-SNAPSHOT</text></symbol><symbol id="6"><text y="1.67" class="h">↓</text><text x="2.004" y="1.67" class="h">Loading</text><text x="10.02" y="1.67" class="h">plugin:</text><text x="18.036" y="1.67" class="g">gyro:gyro-brightspot-plugin:0.99.1-SNAPSHOT</text></symbol><symbol id="7"><text y="1.67" class="h">⟳</text><text x="2.004" y="1.67" class="h">Refreshed</text><text x="12.024" y="1.67" class="h">resources:</text><text x="23.046" y="1.67" class="g">0</text></symbol><symbol id="8"><text y="1.67" class="i">Looking</text><text x="8.016" y="1.67" class="i">for</text><text x="12.024" y="1.67" class="i">changes...</text></symbol><symbol id="9"><text y="1.67" class="j">+</text><text x="2.004" y="1.67" class="j">Create</text><text x="9.018" y="1.67" class="j">aws::vpc</text><text x="18.036" y="1.67" class="j">vpc</text></symbol><symbol id="10"><text y="1.67" class="j">+</text><text x="2.004" y="1.67" class="j">Create</text><text x="9.018" y="1.67" class="j">aws::subnet</text><text x="21.042" y="1.67" class="j">subnet</text></symbol><symbol id="11"><text y="1.67" class="j">+</text><text x="2.004" y="1.67" class="j">Create</text><text x="9.018" y="1.67" class="j">aws::security-group</text><text x="29.058" y="1.67" class="j">security-group</text></symbol><symbol id="12"><text x="4.008" y="1.67" class="j">+</text><text x="6.012" y="1.67" class="j">Create</text><text x="13.026" y="1.67" class="j">ingress</text><text x="21.042" y="1.67" class="j">22</text><text x="24.048" y="1.67" class="j">22</text><text x="27.054" y="1.67" class="j">tcp</text><text x="31.062" y="1.67" class="j">0.0.0.0/0</text></symbol><symbol id="13"><text y="1.67" class="j">+</text><text x="2.004" y="1.67" class="j">Create</text><text x="9.018" y="1.67" class="j">aws::instance</text><text x="23.046" y="1.67" class="j">instance-example</text></symbol><symbol id="14"><text y="1.67" class="g">Are</text><text x="4.008" y="1.67" class="g">you</text><text x="8.016" y="1.67" class="g">sure</text><text x="13.026" y="1.67" class="g">you</text><text x="17.034" y="1.67" class="g">want</text><text x="22.044" y="1.67" class="g">to</text><text x="25.05" y="1.67" class="g">change</text><text x="32.064" y="1.67" class="g">resources?</text><text x="43.086" y="1.67" class="g">(y/N)</text><text x="49.098" y="1.67" class="g">y</text></symbol><symbol id="15"><text y="1.67" class="h">+</text><text x="2.004" y="1.67" class="h">Creating</text><text x="11.022" y="1.67" class="h">aws::vpc</text><text x="20.04" y="1.67" class="h">vpc</text><text x="24.048" y="1.67" class="k">OK</text></symbol><symbol id="16"><text y="1.67" class="h">+</text><text x="2.004" y="1.67" class="h">Creating</text><text x="11.022" y="1.67" class="h">aws::subnet</text><text x="23.046" y="1.67" class="h">subnet</text><text x="30.06" y="1.67" class="k">OK</text></symbol><symbol id="17"><text y="1.67" class="h">+</text><text x="2.004" y="1.67" class="h">Creating</text><text x="11.022" y="1.67" class="h">aws::security-group</text><text x="31.062" y="1.67" class="h">security-group</text><text x="46.092" y="1.67" class="k">OK</text></symbol><symbol id="18"><text y="1.67" class="h">+</text><text x="2.004" y="1.67" class="h">Creating</text><text x="11.022" y="1.67" class="h">ingress</text><text x="19.038" y="1.67" class="h">22</text><text x="22.044" y="1.67" class="h">22</text><text x="25.05" y="1.67" class="h">tcp</text><text x="29.058" y="1.67" class="h">0.0.0.0/0</text><text x="39.078" y="1.67" class="h">for</text><text x="43.086" y="1.67" class="h">aws::security-group</text><text x="63.126" y="1.67" class="h">security-group</text><text x="78.156" y="1.67" class="k">OK</text></symbol><symbol id="19"><text y="1.67" class="h">+</text><text x="2.004" y="1.67" class="h">Creating</text><text x="11.022" y="1.67" class="h">aws::instance</text><text x="25.05" y="1.67" class="h">instance-example</text><text x="42.084" y="1.67" class="k">OK</text></symbol><symbol id="a"><path fill="transparent" d="M0 0h130v35H0z"/></symbol><symbol id="b"><path fill="#6f7683" d="M0 0h1.102v2.171H0z"/></symbol></defs><path class="a" d="M0 0h130v75.985H0z"/><g style="animation-duration:25.271541s;animation-iteration-count:infinite;animation-name:n;animation-timing-function:steps(1,end)"><svg width="7410"><svg><use xlink:href="#a"/><use xlink:href="#b" x="-.004"/></svg><svg x="130"><use xlink:href="#a"/><use xlink:href="#b" x="-.004"/></svg><svg x="260"><use xlink:href="#a"/><use xlink:href="#b" x="1.996"/><use xlink:href="#1"/></svg><svg x="390"><use xlink:href="#a"/><use xlink:href="#b" x="2.996"/><text y="1.67" class="f">✈</text><text x="2.004" y="1.67" class="g">g</text></svg><svg x="520"><use xlink:href="#a"/><use xlink:href="#b" x="3.996"/><text y="1.67" class="f">✈</text><text x="2.004" y="1.67" class="g">gy</text></svg><svg x="650"><use xlink:href="#a"/><use xlink:href="#b" x="4.996"/><text y="1.67" class="f">✈</text><text x="2.004" y="1.67" class="g">gyr</text></svg><svg x="780"><use xlink:href="#a"/><use xlink:href="#b" x="5.996"/><use xlink:href="#2"/></svg><svg x="910"><use xlink:href="#a"/><use xlink:href="#b" x="6.996"/><use xlink:href="#2"/></svg><svg x="1040"><use xlink:href="#a"/><use xlink:href="#b" x="7.996"/><text y="1.67" class="f">✈</text><text x="2.004" y="1.67" class="g">gyro</text><text x="7.014" y="1.67" class="g">u</text></svg><svg x="1170"><use xlink:href="#a"/><use xlink:href="#b" x="8.996"/><use xlink:href="#3"/></svg><svg x="1300"><use xlink:href="#a"/><use xlink:href="#b" x="9.996"/><use xlink:href="#3"/></svg><svg x="1430"><use xlink:href="#a"/><use xlink:href="#b" x="10.996"/><text y="1.67" class="f">✈</text><text x="2.004" y="1.67" class="g">gyro</text><text x="7.014" y="1.67" class="g">up</text><text x="10.02" y="1.67" class="g">e</text></svg><svg x="1560"><use xlink:href="#a"/><use xlink:href="#b" x="11.996"/><text y="1.67" class="f">✈</text><text x="2.004" y="1.67" class="g">gyro</text><text x="7.014" y="1.67" class="g">up</text><text x="10.02" y="1.67" class="g">ex</text></svg><svg x="1690"><use xlink:href="#a"/><use xlink:href="#b" x="12.996"/><text y="1.67" class="f">✈</text><text x="2.004" y="1.67" class="g">gyro</text><text x="7.014" y="1.67" class="g">up</text><text x="10.02" y="1.67" class="g">exa</text></svg><svg x="1820"><use xlink:href="#a"/><use xlink:href="#b" x="13.996"/><text y="1.67" class="f">✈</text><text x="2.004" y="1.67" class="g">gyro</text><text x="7.014" y="1.67" class="g">up</text><text x="10.02" y="1.67" class="g">exam</text></svg><svg x="1950"><use xlink:href="#a"/><use xlink:href="#b" x="14.996"/><text y="1.67" class="f">✈</text><text x="2.004" y="1.67" class="g">gyro</text><text x="7.014" y="1.67" class="g">up</text><text x="10.02" y="1.67" class="g">examp</text></svg><svg x="2080"><use xlink:href="#a"/><use xlink:href="#b" x="15.996"/><text y="1.67" class="f">✈</text><text x="2.004" y="1.67" class="g">gyro</text><text x="7.014" y="1.67" class="g">up</text><text x="10.02" y="1.67" class="g">exampl</text></svg><svg x="2210"><use xlink:href="#a"/><use xlink:href="#b" x="16.996"/><text y="1.67" class="f">✈</text><text x="2.004" y="1.67" class="g">gyro</text><text x="7.014" y="1.67" class="g">up</text><text x="10.02" y="1.67" class="g">example</text></svg><svg x="2340"><use xlink:href="#a"/><use xlink:href="#b" x="17.996"/><text y="1.67" class="f">✈</text><text x="2.004" y="1.67" class="g">gyro</text><text x="7.014" y="1.67" class="g">up</text><text x="10.02" y="1.67" class="g">example.</text></svg><svg x="2470"><use xlink:href="#a"/><use xlink:href="#b" x="18.996"/><text y="1.67" class="f">✈</text><text x="2.004" y="1.67" class="g">gyro</text><text x="7.014" y="1.67" class="g">up</text><text x="10.02" y="1.67" class="g">example.g</text></svg><svg x="2600"><use xlink:href="#a"/><use xlink:href="#b" x="19.996"/><text y="1.67" class="f">✈</text><text x="2.004" y="1.67" class="g">gyro</text><text x="7.014" y="1.67" class="g">up</text><text x="10.02" y="1.67" class="g">example.gy</text></svg><svg x="2730"><use xlink:href="#a"/><use xlink:href="#b" x="20.996"/><text y="1.67" class="f">✈</text><text x="2.004" y="1.67" class="g">gyro</text><text x="7.014" y="1.67" class="g">up</text><text x="10.02" y="1.67" class="g">example.gyr</text></svg><svg x="2860"><use xlink:href="#a"/><use xlink:href="#b" x="21.996"/><use xlink:href="#4"/></svg><svg x="2990"><use xlink:href="#a"/><use xlink:href="#b" x="-.004" y="2.146"/><use xlink:href="#4"/></svg><svg x="3120"><use xlink:href="#a"/><use xlink:href="#b" x="55.996" y="2.146"/><use xlink:href="#4"/><use xlink:href="#5" y="2.171"/></svg><svg x="3250"><use xlink:href="#a"/><use xlink:href="#b" x="-.004" y="4.317"/><use xlink:href="#4"/><use xlink:href="#5" y="2.171"/></svg><svg x="3380"><use xlink:href="#a"/><use xlink:href="#b" x="-.004" y="6.488"/><use xlink:href="#4"/><use xlink:href="#5" y="2.171"/><use xlink:href="#6" y="4.342"/></svg><svg x="3510"><use xlink:href="#a"/><use xlink:href="#b" x="-.004" y="6.488"/><use xlink:href="#4"/><use xlink:href="#5" y="2.171"/><use xlink:href="#6" y="4.342"/></svg><svg x="3640"><use xlink:href="#a"/><use xlink:href="#b" x="40.996" y="6.488"/><use xlink:href="#4"/><use xlink:href="#5" y="2.171"/><use xlink:href="#6" y="4.342"/><text y="8.183" class="h">⟳</text><text x="2.004" y="8.183" class="h">Refreshing</text><text x="13.026" y="8.183" class="h">resources:</text><text x="24.048" y="8.183" class="g">0</text><text x="26.052" y="8.183" class="g">started,</text><text x="35.07" y="8.183" class="g">0</text><text x="37.074" y="8.183" class="g">done</text></svg><svg x="3770"><use xlink:href="#a"/><use xlink:href="#b" x="-.004" y="6.488"/><use xlink:href="#4"/><use xlink:href="#5" y="2.171"/><use xlink:href="#6" y="4.342"/></svg><svg x="3900"><use xlink:href="#a"/><use xlink:href="#b" x="23.996" y="6.488"/><use xlink:href="#4"/><use xlink:href="#5" y="2.171"/><use xlink:href="#6" y="4.342"/><use xlink:href="#7" y="6.513"/></svg><svg x="4030"><use xlink:href="#a"/><use xlink:href="#b" x="-.004" y="8.659"/><use xlink:href="#4"/><use xlink:href="#5" y="2.171"/><use xlink:href="#6" y="4.342"/><use xlink:href="#7" y="6.513"/></svg><svg x="4160"><use xlink:href="#a"/><use xlink:href="#b" x="-.004" y="15.172"/><use xlink:href="#4"/><use xlink:href="#5" y="2.171"/><use xlink:href="#6" y="4.342"/><use xlink:href="#7" y="6.513"/><use xlink:href="#8" y="10.855"/></svg><svg x="4290"><use xlink:href="#a"/><use xlink:href="#b" x="20.996" y="15.172"/><use xlink:href="#4"/><use xlink:href="#5" y="2.171"/><use xlink:href="#6" y="4.342"/><use xlink:href="#7" y="6.513"/><use xlink:href="#8" y="10.855"/><use xlink:href="#9" y="15.197"/></svg><svg x="4420"><use xlink:href="#a"/><use xlink:href="#b" x="-.004" y="17.343"/><use xlink:href="#4"/><use xlink:href="#5" y="2.171"/><use xlink:href="#6" y="4.342"/><use xlink:href="#7" y="6.513"/><use xlink:href="#8" y="10.855"/><use xlink:href="#9" y="15.197"/></svg><svg x="4550"><use xlink:href="#a"/><use xlink:href="#b" x="26.996" y="17.343"/><use xlink:href="#4"/><use xlink:href="#5" y="2.171"/><use xlink:href="#6" y="4.342"/><use xlink:href="#7" y="6.513"/><use xlink:href="#8" y="10.855"/><use xlink:href="#9" y="15.197"/><use xlink:href="#10" y="17.368"/></svg><svg x="4680"><use xlink:href="#a"/><use xlink:href="#b" x="-.004" y="19.514"/><use xlink:href="#4"/><use xlink:href="#5" y="2.171"/><use xlink:href="#6" y="4.342"/><use xlink:href="#7" y="6.513"/><use xlink:href="#8" y="10.855"/><use xlink:href="#9" y="15.197"/><use xlink:href="#10" y="17.368"/></svg><svg x="4810"><use xlink:href="#a"/><use xlink:href="#b" x="-.004" y="21.685"/><use xlink:href="#4"/><use xlink:href="#5" y="2.171"/><use xlink:href="#6" y="4.342"/><use xlink:href="#7" y="6.513"/><use xlink:href="#8" y="10.855"/><use xlink:href="#9" y="15.197"/><use xlink:href="#10" y="17.368"/><use xlink:href="#11" y="19.539"/></svg><svg x="4940"><use xlink:href="#a"/><use xlink:href="#b" x="1.996" y="21.685"/><use xlink:href="#4"/><use xlink:href="#5" y="2.171"/><use xlink:href="#6" y="4.342"/><use xlink:href="#7" y="6.513"/><use xlink:href="#8" y="10.855"/><use xlink:href="#9" y="15.197"/><use xlink:href="#10" y="17.368"/><use xlink:href="#11" y="19.539"/></svg><svg x="5070"><use xlink:href="#a"/><use xlink:href="#b" x="-.004" y="23.856"/><use xlink:href="#4"/><use xlink:href="#5" y="2.171"/><use xlink:href="#6" y="4.342"/><use xlink:href="#7" y="6.513"/><use xlink:href="#8" y="10.855"/><use xlink:href="#9" y="15.197"/><use xlink:href="#10" y="17.368"/><use xlink:href="#11" y="19.539"/><use xlink:href="#12" y="21.71"/></svg><svg x="5200"><use xlink:href="#a"/><use xlink:href="#b" x="-.004" y="26.027"/><use xlink:href="#4"/><use xlink:href="#5" y="2.171"/><use xlink:href="#6" y="4.342"/><use xlink:href="#7" y="6.513"/><use xlink:href="#8" y="10.855"/><use xlink:href="#9" y="15.197"/><use xlink:href="#10" y="17.368"/><use xlink:href="#11" y="19.539"/><use xlink:href="#12" y="21.71"/><use xlink:href="#13" y="23.881"/></svg><svg x="5330"><use xlink:href="#a"/><use xlink:href="#b" x="48.996" y="28.198"/><use xlink:href="#4"/><use xlink:href="#5" y="2.171"/><use xlink:href="#6" y="4.342"/><use xlink:href="#7" y="6.513"/><use xlink:href="#8" y="10.855"/><use xlink:href="#9" y="15.197"/><use xlink:href="#10" y="17.368"/><use xlink:href="#11" y="19.539"/><use xlink:href="#12" y="21.71"/><use xlink:href="#13" y="23.881"/><text y="29.893" class="g">Are</text><text x="4.008" y="29.893" class="g">you</text><text x="8.016" y="29.893" class="g">sure</text><text x="13.026" y="29.893" class="g">you</text><text x="17.034" y="29.893" class="g">want</text><text x="22.044" y="29.893" class="g">to</text><text x="25.05" y="29.893" class="g">change</text><text x="32.064" y="29.893" class="g">resources?</text><text x="43.086" y="29.893" class="g">(y/N)</text></svg><svg x="5460"><use xlink:href="#a"/><use xlink:href="#b" x="49.996" y="28.198"/><use xlink:href="#4"/><use xlink:href="#5" y="2.171"/><use xlink:href="#6" y="4.342"/><use xlink:href="#7" y="6.513"/><use xlink:href="#8" y="10.855"/><use xlink:href="#9" y="15.197"/><use xlink:href="#10" y="17.368"/><use xlink:href="#11" y="19.539"/><use xlink:href="#12" y="21.71"/><use xlink:href="#13" y="23.881"/><use xlink:href="#14" y="28.223"/></svg><svg x="5590"><use xlink:href="#a"/><use xlink:href="#b" x="-.004" y="30.369"/><use xlink:href="#4"/><use xlink:href="#5" y="2.171"/><use xlink:href="#6" y="4.342"/><use xlink:href="#7" y="6.513"/><use xlink:href="#8" y="10.855"/><use xlink:href="#9" y="15.197"/><use xlink:href="#10" y="17.368"/><use xlink:href="#11" y="19.539"/><use xlink:href="#12" y="21.71"/><use xlink:href="#13" y="23.881"/><use xlink:href="#14" y="28.223"/></svg><svg x="5720"><use xlink:href="#a"/><use xlink:href="#b" x="-.004" y="32.54"/><use xlink:href="#4"/><use xlink:href="#5" y="2.171"/><use xlink:href="#6" y="4.342"/><use xlink:href="#7" y="6.513"/><use xlink:href="#8" y="10.855"/><use xlink:href="#9" y="15.197"/><use xlink:href="#10" y="17.368"/><use xlink:href="#11" y="19.539"/><use xlink:href="#12" y="21.71"/><use xlink:href="#13" y="23.881"/><use xlink:href="#14" y="28.223"/></svg><svg x="5850"><use xlink:href="#a"/><use xlink:href="#b" x="22.996" y="32.54"/><use xlink:href="#4"/><use xlink:href="#5" y="2.171"/><use xlink:href="#6" y="4.342"/><use xlink:href="#7" y="6.513"/><use xlink:href="#8" y="10.855"/><use xlink:href="#9" y="15.197"/><use xlink:href="#10" y="17.368"/><use xlink:href="#11" y="19.539"/><use xlink:href="#12" y="21.71"/><use xlink:href="#13" y="23.881"/><use xlink:href="#14" y="28.223"/><text y="34.235" class="h">+</text><text x="2.004" y="34.235" class="h">Creating</text><text x="11.022" y="34.235" class="h">aws::vpc</text><text x="20.04" y="34.235" class="h">vpc</text></svg><svg x="5980"><use xlink:href="#a"/><use xlink:href="#b" x="-.004" y="34.711"/><use xlink:href="#4"/><use xlink:href="#5" y="2.171"/><use xlink:href="#6" y="4.342"/><use xlink:href="#7" y="6.513"/><use xlink:href="#8" y="10.855"/><use xlink:href="#9" y="15.197"/><use xlink:href="#10" y="17.368"/><use xlink:href="#11" y="19.539"/><use xlink:href="#12" y="21.71"/><use xlink:href="#13" y="23.881"/><use xlink:href="#14" y="28.223"/><use xlink:href="#15" y="32.565"/></svg><svg x="6110"><use xlink:href="#a"/><use xlink:href="#b" x="28.996" y="34.711"/><use xlink:href="#4"/><use xlink:href="#5" y="2.171"/><use xlink:href="#6" y="4.342"/><use xlink:href="#7" y="6.513"/><use xlink:href="#8" y="10.855"/><use xlink:href="#9" y="15.197"/><use xlink:href="#10" y="17.368"/><use xlink:href="#11" y="19.539"/><use xlink:href="#12" y="21.71"/><use xlink:href="#13" y="23.881"/><use xlink:href="#14" y="28.223"/><use xlink:href="#15" y="32.565"/><text y="36.406" class="h">+</text><text x="2.004" y="36.406" class="h">Creating</text><text x="11.022" y="36.406" class="h">aws::subnet</text><text x="23.046" y="36.406" class="h">subnet</text></svg><svg x="6240"><use xlink:href="#a"/><use xlink:href="#b" x="-.004" y="36.882"/><use xlink:href="#4"/><use xlink:href="#5" y="2.171"/><use xlink:href="#6" y="4.342"/><use xlink:href="#7" y="6.513"/><use xlink:href="#8" y="10.855"/><use xlink:href="#9" y="15.197"/><use xlink:href="#10" y="17.368"/><use xlink:href="#11" y="19.539"/><use xlink:href="#12" y="21.71"/><use xlink:href="#13" y="23.881"/><use xlink:href="#14" y="28.223"/><use xlink:href="#15" y="32.565"/><use xlink:href="#16" y="34.736"/></svg><svg x="6370"><use xlink:href="#a"/><use xlink:href="#b" x="44.996" y="36.882"/><use xlink:href="#4"/><use xlink:href="#5" y="2.171"/><use xlink:href="#6" y="4.342"/><use xlink:href="#7" y="6.513"/><use xlink:href="#8" y="10.855"/><use xlink:href="#9" y="15.197"/><use xlink:href="#10" y="17.368"/><use xlink:href="#11" y="19.539"/><use xlink:href="#12" y="21.71"/><use xlink:href="#13" y="23.881"/><use xlink:href="#14" y="28.223"/><use xlink:href="#15" y="32.565"/><use xlink:href="#16" y="34.736"/><text y="38.577" class="h">+</text><text x="2.004" y="38.577" class="h">Creating</text><text x="11.022" y="38.577" class="h">aws::security-group</text><text x="31.062" y="38.577" class="h">security-group</text></svg><svg x="6500"><use xlink:href="#a"/><use xlink:href="#b" x="-.004" y="39.053"/><use xlink:href="#4"/><use xlink:href="#5" y="2.171"/><use xlink:href="#6" y="4.342"/><use xlink:href="#7" y="6.513"/><use xlink:href="#8" y="10.855"/><use xlink:href="#9" y="15.197"/><use xlink:href="#10" y="17.368"/><use xlink:href="#11" y="19.539"/><use xlink:href="#12" y="21.71"/><use xlink:href="#13" y="23.881"/><use xlink:href="#14" y="28.223"/><use xlink:href="#15" y="32.565"/><use xlink:href="#16" y="34.736"/><use xlink:href="#17" y="36.907"/></svg><svg x="6630"><use xlink:href="#a"/><use xlink:href="#b" x="76.996" y="39.053"/><use xlink:href="#4"/><use xlink:href="#5" y="2.171"/><use xlink:href="#6" y="4.342"/><use xlink:href="#7" y="6.513"/><use xlink:href="#8" y="10.855"/><use xlink:href="#9" y="15.197"/><use xlink:href="#10" y="17.368"/><use xlink:href="#11" y="19.539"/><use xlink:href="#12" y="21.71"/><use xlink:href="#13" y="23.881"/><use xlink:href="#14" y="28.223"/><use xlink:href="#15" y="32.565"/><use xlink:href="#16" y="34.736"/><use xlink:href="#17" y="36.907"/><text y="40.748" class="h">+</text><text x="2.004" y="40.748" class="h">Creating</text><text x="11.022" y="40.748" class="h">ingress</text><text x="19.038" y="40.748" class="h">22</text><text x="22.044" y="40.748" class="h">22</text><text x="25.05" y="40.748" class="h">tcp</text><text x="29.058" y="40.748" class="h">0.0.0.0/0</text><text x="39.078" y="40.748" class="h">for</text><text x="43.086" y="40.748" class="h">aws::security-group</text><text x="63.126" y="40.748" class="h">security-group</text></svg><svg x="6760"><use xlink:href="#a"/><use xlink:href="#b" x="-.004" y="41.224"/><use xlink:href="#4"/><use xlink:href="#5" y="2.171"/><use xlink:href="#6" y="4.342"/><use xlink:href="#7" y="6.513"/><use xlink:href="#8" y="10.855"/><use xlink:href="#9" y="15.197"/><use xlink:href="#10" y="17.368"/><use xlink:href="#11" y="19.539"/><use xlink:href="#12" y="21.71"/><use xlink:href="#13" y="23.881"/><use xlink:href="#14" y="28.223"/><use xlink:href="#15" y="32.565"/><use xlink:href="#16" y="34.736"/><use xlink:href="#17" y="36.907"/><use xlink:href="#18" y="39.078"/></svg><svg x="6890"><use xlink:href="#a"/><use xlink:href="#b" x="40.996" y="41.224"/><use xlink:href="#4"/><use xlink:href="#5" y="2.171"/><use xlink:href="#6" y="4.342"/><use xlink:href="#7" y="6.513"/><use xlink:href="#8" y="10.855"/><use xlink:href="#9" y="15.197"/><use xlink:href="#10" y="17.368"/><use xlink:href="#11" y="19.539"/><use xlink:href="#12" y="21.71"/><use xlink:href="#13" y="23.881"/><use xlink:href="#14" y="28.223"/><use xlink:href="#15" y="32.565"/><use xlink:href="#16" y="34.736"/><use xlink:href="#17" y="36.907"/><use xlink:href="#18" y="39.078"/><text y="42.919" class="h">+</text><text x="2.004" y="42.919" class="h">Creating</text><text x="11.022" y="42.919" class="h">aws::instance</text><text x="25.05" y="42.919" class="h">instance-example</text></svg><svg x="7020"><use xlink:href="#a"/><use xlink:href="#b" x="-.004" y="43.395"/><use xlink:href="#4"/><use xlink:href="#5" y="2.171"/><use xlink:href="#6" y="4.342"/><use xlink:href="#7" y="6.513"/><use xlink:href="#8" y="10.855"/><use xlink:href="#9" y="15.197"/><use xlink:href="#10" y="17.368"/><use xlink:href="#11" y="19.539"/><use xlink:href="#12" y="21.71"/><use xlink:href="#13" y="23.881"/><use xlink:href="#14" y="28.223"/><use xlink:href="#15" y="32.565"/><use xlink:href="#16" y="34.736"/><use xlink:href="#17" y="36.907"/><use xlink:href="#18" y="39.078"/><use xlink:href="#19" y="41.249"/></svg><svg x="7150"><use xlink:href="#a"/><use xlink:href="#b" x="1.996" y="43.395"/><use xlink:href="#4"/><use xlink:href="#5" y="2.171"/><use xlink:href="#6" y="4.342"/><use xlink:href="#7" y="6.513"/><use xlink:href="#8" y="10.855"/><use xlink:href="#9" y="15.197"/><use xlink:href="#10" y="17.368"/><use xlink:href="#11" y="19.539"/><use xlink:href="#12" y="21.71"/><use xlink:href="#13" y="23.881"/><use xlink:href="#14" y="28.223"/><use xlink:href="#15" y="32.565"/><use xlink:href="#16" y="34.736"/><use xlink:href="#17" y="36.907"/><use xlink:href="#18" y="39.078"/><use xlink:href="#19" y="41.249"/><use xlink:href="#1" y="43.42"/></svg><svg x="7280"><use xlink:href="#a"/><use xlink:href="#b" x="3.996" y="43.395"/><use xlink:href="#4"/><use xlink:href="#5" y="2.171"/><use xlink:href="#6" y="4.342"/><use xlink:href="#7" y="6.513"/><use xlink:href="#8" y="10.855"/><use xlink:href="#9" y="15.197"/><use xlink:href="#10" y="17.368"/><use xlink:href="#11" y="19.539"/><use xlink:href="#12" y="21.71"/><use xlink:href="#13" y="23.881"/><use xlink:href="#14" y="28.223"/><use xlink:href="#15" y="32.565"/><use xlink:href="#16" y="34.736"/><use xlink:href="#17" y="36.907"/><use xlink:href="#18" y="39.078"/><use xlink:href="#19" y="41.249"/><text y="45.09" class="f">✈</text><text x="2.004" y="45.09" class="f">✈</text></svg></svg></g></g></svg></svg>